M48
;GenerationSoftware,Autodesk,EAGLE,9.6.2*%
;CreationDate,2021-05-20T19:27:40Z*%
FMAT,2
ICI,OFF
METRIC,TZ,000.000
T3C0.305
T2C1.016
T1C3.302
%
G90
M71
T1
X28448Y28448
X2540Y2540
X2540Y22860
X22860Y2540
X22860Y22860
X28448Y2540
X28448Y22860
X48768Y2540
X48768Y22860
X54356Y2540
X54356Y22860
X74676Y2540
X74676Y22860
X80264Y2540
X80264Y22860
X100584Y2540
X100584Y22860
X106172Y2540
X106172Y22860
X126492Y2540
X126492Y22860
X2540Y28448
X2540Y48768
X22860Y28448
X22860Y48768
X54356Y74676
X28448Y48768
X48768Y28448
X48768Y48768
X54356Y28448
X54356Y48768
X74676Y28448
X74676Y48768
X80264Y28448
X80264Y48768
X100584Y28448
X100584Y48768
X106172Y28448
X106172Y48768
X126492Y28448
X126492Y48768
X2540Y54356
X2540Y74676
X22860Y54356
X22860Y74676
X28448Y54356
X28448Y74676
X48768Y54356
X48768Y74676
X54356Y54356
X126492Y126492
X74676Y54356
X74676Y74676
X80264Y54356
X80264Y74676
X100584Y54356
X100584Y74676
X106172Y54356
X106172Y74676
X126492Y54356
X126492Y74676
X2540Y80264
X2540Y100584
X22860Y80264
X22860Y100584
X28448Y80264
X28448Y100584
X48768Y80264
X48768Y100584
X54356Y80264
X54356Y100584
X74676Y80264
X74676Y100584
X80264Y80264
X80264Y100584
X100584Y80264
X100584Y100584
X106172Y80264
X106172Y100584
X126492Y80264
X126492Y100584
X2540Y106172
X2540Y126492
X22860Y106172
X22860Y126492
X28448Y106172
X28448Y126492
X48768Y106172
X48768Y126492
X54356Y106172
X54356Y126492
X74676Y106172
X74676Y126492
X80264Y106172
X80264Y126492
X100584Y106172
X100584Y126492
X106172Y106172
X106172Y126492
X126492Y106172
T2
X63246Y1270
X8890Y1270
X11430Y1270
X13970Y1270
X16510Y1270
X34798Y1270
X37338Y1270
X39878Y1270
X42418Y1270
X60706Y1270
X65786Y1270
X68326Y1270
X86614Y1270
X89154Y1270
X91694Y1270
X94234Y1270
X112522Y1270
X115062Y1270
X117602Y1270
X120142Y1270
X8890Y27178
X11430Y27178
X13970Y27178
X16510Y27178
X34798Y27178
X37338Y27178
X39878Y27178
X42418Y27178
X60706Y27178
X63246Y27178
X65786Y27178
X68326Y27178
X86614Y27178
X89154Y27178
X91694Y27178
X94234Y27178
X112522Y27178
X115062Y27178
X117602Y27178
X120142Y27178
X8890Y53086
X11430Y53086
X13970Y53086
X16510Y53086
X34798Y53086
X37338Y53086
X39878Y53086
X42418Y53086
X60706Y53086
X63246Y53086
X65786Y53086
X68326Y53086
X86614Y53086
X89154Y53086
X91694Y53086
X94234Y53086
X112522Y53086
X115062Y53086
X117602Y53086
X120142Y53086
X8890Y78994
X11430Y78994
X13970Y78994
X16510Y78994
X34798Y78994
X37338Y78994
X39878Y78994
X42418Y78994
X60706Y78994
X63246Y78994
X65786Y78994
X68326Y78994
X86614Y78994
X89154Y78994
X91694Y78994
X94234Y78994
X112522Y78994
X115062Y78994
X117602Y78994
X120142Y78994
X8890Y104902
X11430Y104902
X13970Y104902
X16510Y104902
X34798Y104902
X37338Y104902
X39878Y104902
X42418Y104902
X60706Y104902
X63246Y104902
X65786Y104902
X68326Y104902
X86614Y104902
X89154Y104902
X91694Y104902
X94234Y104902
X112522Y104902
X115062Y104902
X117602Y104902
X120142Y104902
T3
X123952Y34798
X111252Y44958
X121412Y44958
X107315Y44450
X113792Y29718
X119380Y30442
X121412Y29718
X113792Y28829
X123825Y30988
X109982Y31877
X6477Y65024
X19050Y64008
X11430Y58166
X11430Y69850
X21590Y64008
X3429Y66040
X10160Y59055
X11430Y65786
X13970Y65786
X13970Y63246
X11430Y63246
X20320Y60706
X7620Y70866
X17780Y70866
X3683Y70358
X10160Y55626
X15748Y56350
X17780Y55626
X10160Y54737
X20193Y56896
X6350Y57785
X32385Y65024
X44958Y64008
X37338Y58166
X37338Y69850
X47498Y64008
X29337Y66040
X36068Y59055
X37338Y65786
X39878Y65786
X39878Y63246
X37338Y63246
X46228Y60706
X33528Y70866
X43688Y70866
X29591Y70358
X36068Y55626
X41656Y56350
X43688Y55626
X36068Y54737
X46101Y56896
X32258Y57785
X58293Y65024
X70866Y64008
X63246Y58166
X63246Y69850
X73406Y64008
X55245Y66040
X61976Y59055
X63246Y65786
X65786Y65786
X65786Y63246
X63246Y63246
X72136Y60706
X59436Y70866
X69596Y70866
X55499Y70358
X61976Y55626
X67564Y56350
X69596Y55626
X61976Y54737
X72009Y56896
X58166Y57785
X84201Y65024
X96774Y64008
X89154Y58166
X89154Y69850
X99314Y64008
X81153Y66040
X87884Y59055
X89154Y65786
X91694Y65786
X91694Y63246
X89154Y63246
X98044Y60706
X85344Y70866
X95504Y70866
X81407Y70358
X87884Y55626
X93472Y56350
X95504Y55626
X87884Y54737
X97917Y56896
X84074Y57785
X110109Y65024
X122682Y64008
X115062Y58166
X115062Y69850
X125222Y64008
X107061Y66040
X113792Y59055
X115062Y65786
X117602Y65786
X117602Y63246
X115062Y63246
X123952Y60706
X111252Y70866
X121412Y70866
X107315Y70358
X113792Y55626
X119380Y56350
X121412Y55626
X113792Y54737
X123825Y56896
X109982Y57785
X6477Y90932
X19050Y89916
X11430Y84074
X11430Y95758
X21590Y89916
X3429Y91948
X10160Y84963
X11430Y91694
X13970Y91694
X13970Y89154
X11430Y89154
X20320Y86614
X7620Y96774
X17780Y96774
X3683Y96266
X10160Y81534
X15748Y82258
X17780Y81534
X10160Y80645
X20193Y82804
X6350Y83693
X32385Y90932
X44958Y89916
X37338Y84074
X37338Y95758
X47498Y89916
X29337Y91948
X36068Y84963
X37338Y91694
X39878Y91694
X39878Y89154
X37338Y89154
X46228Y86614
X33528Y96774
X43688Y96774
X29591Y96266
X36068Y81534
X41656Y82258
X43688Y81534
X36068Y80645
X46101Y82804
X32258Y83693
X58293Y90932
X70866Y89916
X63246Y84074
X63246Y95758
X73406Y89916
X113792Y7239
X61976Y84963
X63246Y91694
X65786Y91694
X65786Y89154
X63246Y89154
X72136Y86614
X59436Y96774
X69596Y96774
X55499Y96266
X61976Y81534
X67564Y82258
X69596Y81534
X61976Y80645
X72009Y82804
X58166Y83693
X84201Y90932
X96774Y89916
X89154Y84074
X89154Y95758
X99314Y89916
X81153Y91948
X87884Y84963
X89154Y91694
X91694Y91694
X91694Y89154
X89154Y89154
X98044Y86614
X85344Y96774
X95504Y96774
X81407Y96266
X87884Y81534
X93472Y82258
X95504Y81534
X87884Y80645
X97917Y82804
X84074Y83693
X110109Y90932
X122682Y89916
X115062Y84074
X115062Y95758
X125222Y89916
X107061Y91948
X113792Y84963
X115062Y91694
X117602Y91694
X117602Y89154
X115062Y89154
X123952Y86614
X111252Y96774
X121412Y96774
X107315Y96266
X113792Y81534
X119380Y82258
X121412Y81534
X113792Y80645
X123825Y82804
X109982Y83693
X6477Y116840
X19050Y115824
X11430Y109982
X11430Y121666
X21590Y115824
X3429Y117856
X10160Y110871
X11430Y117602
X13970Y117602
X13970Y115062
X11430Y115062
X20320Y112522
X7620Y122682
X17780Y122682
X3683Y122174
X10160Y107442
X15748Y108166
X17780Y107442
X10160Y106553
X20193Y108712
X6350Y109601
X32385Y116840
X44958Y115824
X37338Y109982
X37338Y121666
X47498Y115824
X29337Y117856
X36068Y110871
X37338Y117602
X39878Y117602
X39878Y115062
X37338Y115062
X46228Y112522
X33528Y122682
X43688Y122682
X29591Y122174
X36068Y107442
X41656Y108166
X43688Y107442
X36068Y106553
X46101Y108712
X32258Y109601
X58293Y116840
X70866Y115824
X63246Y109982
X63246Y121666
X73406Y115824
X55245Y117856
X61976Y110871
X63246Y117602
X65786Y117602
X65786Y115062
X63246Y115062
X72136Y112522
X59436Y122682
X69596Y122682
X55499Y122174
X61976Y107442
X67564Y108166
X69596Y107442
X61976Y106553
X72009Y108712
X58166Y109601
X84201Y116840
X96774Y115824
X89154Y109982
X89154Y121666
X99314Y115824
X81153Y117856
X87884Y110871
X89154Y117602
X91694Y117602
X91694Y115062
X89154Y115062
X98044Y112522
X85344Y122682
X95504Y122682
X81407Y122174
X87884Y107442
X93472Y108166
X95504Y107442
X87884Y106553
X97917Y108712
X84074Y109601
X110109Y116840
X122682Y115824
X115062Y109982
X115062Y121666
X125222Y115824
X107061Y117856
X113792Y110871
X115062Y117602
X117602Y117602
X117602Y115062
X115062Y115062
X123952Y112522
X111252Y122682
X121412Y122682
X107315Y122174
X113792Y107442
X119380Y108166
X121412Y107442
X113792Y106553
X123825Y108712
X109982Y109601
X6477Y13208
X19050Y12192
X11430Y6350
X11430Y18034
X21590Y12192
X3429Y14224
X10160Y7239
X11430Y13970
X13970Y13970
X13970Y11430
X11430Y11430
X20320Y8890
X7620Y19050
X17780Y19050
X3683Y18542
X10160Y3810
X15748Y4534
X17780Y3810
X10160Y2921
X20193Y5080
X6350Y5969
X32385Y13208
X44958Y12192
X37338Y6350
X37338Y18034
X47498Y12192
X29337Y14224
X36068Y7239
X37338Y13970
X39878Y13970
X39878Y11430
X37338Y11430
X46228Y8890
X33528Y19050
X43688Y19050
X29591Y18542
X36068Y3810
X41656Y4534
X43688Y3810
X36068Y2921
X46101Y5080
X32258Y5969
X58293Y13208
X70866Y12192
X63246Y6350
X63246Y18034
X73406Y12192
X55245Y14224
X61976Y7239
X63246Y13970
X65786Y13970
X65786Y11430
X63246Y11430
X72136Y8890
X59436Y19050
X69596Y19050
X55499Y18542
X61976Y3810
X67564Y4534
X69596Y3810
X61976Y2921
X72009Y5080
X58166Y5969
X84201Y13208
X96774Y12192
X89154Y6350
X89154Y18034
X99314Y12192
X81153Y14224
X87884Y7239
X89154Y13970
X91694Y13970
X91694Y11430
X89154Y11430
X98044Y8890
X85344Y19050
X95504Y19050
X81407Y18542
X87884Y3810
X93472Y4534
X95504Y3810
X87884Y2921
X97917Y5080
X84074Y5969
X110109Y13208
X122682Y12192
X115062Y6350
X115062Y18034
X125222Y12192
X107061Y14224
X115062Y13970
X117602Y13970
X117602Y11430
X115062Y11430
X123952Y8890
X111252Y19050
X121412Y19050
X107315Y18542
X113792Y3810
X119380Y4534
X121412Y3810
X113792Y2921
X123825Y5080
X109982Y5969
X6477Y39116
X19050Y38100
X11430Y32258
X11430Y43942
X21590Y38100
X55245Y91948
X3429Y40132
X10160Y33147
X11430Y39878
X13970Y39878
X13970Y37338
X11430Y37338
X20320Y34798
X7620Y44958
X17780Y44958
X3683Y44450
X10160Y29718
X15748Y30442
X17780Y29718
X10160Y28829
X20193Y30988
X6350Y31877
X32385Y39116
X44958Y38100
X37338Y32258
X37338Y43942
X47498Y38100
X29337Y40132
X36068Y33147
X37338Y39878
X39878Y39878
X39878Y37338
X37338Y37338
X46228Y34798
X33528Y44958
X43688Y44958
X29591Y44450
X36068Y29718
X41656Y30442
X43688Y29718
X36068Y28829
X46101Y30988
X32258Y31877
X58293Y39116
X70866Y38100
X63246Y32258
X63246Y43942
X73406Y38100
X55245Y40132
X61976Y33147
X63246Y39878
X65786Y39878
X65786Y37338
X63246Y37338
X72136Y34798
X59436Y44958
X69596Y44958
X55499Y44450
X61976Y29718
X67564Y30442
X69596Y29718
X61976Y28829
X72009Y30988
X58166Y31877
X84201Y39116
X96774Y38100
X89154Y32258
X89154Y43942
X99314Y38100
X81153Y40132
X87884Y33147
X89154Y39878
X91694Y39878
X91694Y37338
X89154Y37338
X98044Y34798
X85344Y44958
X95504Y44958
X81407Y44450
X87884Y29718
X93472Y30442
X95504Y29718
X87884Y28829
X97917Y30988
X84074Y31877
X110109Y39116
X122682Y38100
X115062Y32258
X115062Y43942
X125222Y38100
X107061Y40132
X113792Y33147
X115062Y39878
X117602Y39878
X117602Y37338
X115062Y37338
M30