G04 EAGLE Gerber RS-274X export*
G75*
%MOMM*%
%FSLAX34Y34*%
%LPD*%
%INSoldermask Top*%
%IPPOS*%
%AMOC8*
5,1,8,0,0,1.08239X$1,22.5*%
G01*
%ADD10C,3.505200*%
%ADD11C,0.838200*%
%ADD12R,2.203200X1.403200*%
%ADD13R,1.553200X0.803200*%
%ADD14C,2.082800*%
%ADD15C,0.505344*%
%ADD16R,1.203200X1.303200*%
%ADD17R,5.003200X5.003200*%
%ADD18R,0.703200X0.703200*%
%ADD19R,1.703200X1.003200*%
%ADD20R,1.003200X1.703200*%
%ADD21R,1.303200X1.203200*%
%ADD22C,1.203200*%
%ADD23C,1.270000*%
%ADD24C,1.703200*%


D10*
X25400Y25400D03*
X25400Y228600D03*
D11*
X247650Y247650D03*
X6350Y6350D03*
D12*
X239950Y99000D03*
X239950Y155000D03*
D13*
X203200Y112000D03*
X203200Y122000D03*
X203200Y132000D03*
X203200Y142000D03*
D14*
X88900Y12700D03*
X114300Y12700D03*
X139700Y12700D03*
X165100Y12700D03*
D12*
X14050Y155000D03*
X14050Y99000D03*
D13*
X50800Y142000D03*
X50800Y132000D03*
X50800Y122000D03*
X50800Y112000D03*
D10*
X228600Y25400D03*
X228600Y228600D03*
D15*
X28890Y183080D02*
X21910Y183080D01*
X21910Y190060D01*
X28890Y190060D01*
X28890Y183080D01*
X28890Y187880D02*
X21910Y187880D01*
X21910Y165540D02*
X28890Y165540D01*
X21910Y165540D02*
X21910Y172520D01*
X28890Y172520D01*
X28890Y165540D01*
X28890Y170340D02*
X21910Y170340D01*
D16*
X50800Y169300D03*
X50800Y186300D03*
X63500Y29600D03*
X63500Y46600D03*
X190500Y29600D03*
X190500Y46600D03*
D17*
X127000Y127000D03*
D18*
X87000Y152000D03*
D19*
X87000Y139500D03*
X87000Y127000D03*
X87000Y114500D03*
X87000Y102000D03*
D20*
X102000Y87000D03*
X114500Y87000D03*
X127000Y87000D03*
X139500Y87000D03*
X152000Y87000D03*
D19*
X167000Y102000D03*
X167000Y114500D03*
X167000Y127000D03*
X167000Y139500D03*
X167000Y152000D03*
D20*
X152000Y167000D03*
X139500Y167000D03*
X127000Y167000D03*
X114500Y167000D03*
X102000Y167000D03*
D21*
X110100Y190500D03*
X93100Y190500D03*
X143900Y190500D03*
X160900Y190500D03*
D10*
X284480Y25400D03*
X284480Y228600D03*
D11*
X506730Y247650D03*
X265430Y6350D03*
D12*
X499030Y99000D03*
X499030Y155000D03*
D13*
X462280Y112000D03*
X462280Y122000D03*
X462280Y132000D03*
X462280Y142000D03*
D14*
X347980Y12700D03*
X373380Y12700D03*
X398780Y12700D03*
X424180Y12700D03*
D12*
X273130Y155000D03*
X273130Y99000D03*
D13*
X309880Y142000D03*
X309880Y132000D03*
X309880Y122000D03*
X309880Y112000D03*
D10*
X487680Y25400D03*
X487680Y228600D03*
D15*
X287970Y183080D02*
X280990Y183080D01*
X280990Y190060D01*
X287970Y190060D01*
X287970Y183080D01*
X287970Y187880D02*
X280990Y187880D01*
X280990Y165540D02*
X287970Y165540D01*
X280990Y165540D02*
X280990Y172520D01*
X287970Y172520D01*
X287970Y165540D01*
X287970Y170340D02*
X280990Y170340D01*
D16*
X309880Y169300D03*
X309880Y186300D03*
X322580Y29600D03*
X322580Y46600D03*
X449580Y29600D03*
X449580Y46600D03*
D17*
X386080Y127000D03*
D18*
X346080Y152000D03*
D19*
X346080Y139500D03*
X346080Y127000D03*
X346080Y114500D03*
X346080Y102000D03*
D20*
X361080Y87000D03*
X373580Y87000D03*
X386080Y87000D03*
X398580Y87000D03*
X411080Y87000D03*
D19*
X426080Y102000D03*
X426080Y114500D03*
X426080Y127000D03*
X426080Y139500D03*
X426080Y152000D03*
D20*
X411080Y167000D03*
X398580Y167000D03*
X386080Y167000D03*
X373580Y167000D03*
X361080Y167000D03*
D21*
X369180Y190500D03*
X352180Y190500D03*
X402980Y190500D03*
X419980Y190500D03*
D10*
X543560Y25400D03*
X543560Y228600D03*
D11*
X765810Y247650D03*
X524510Y6350D03*
D12*
X758110Y99000D03*
X758110Y155000D03*
D13*
X721360Y112000D03*
X721360Y122000D03*
X721360Y132000D03*
X721360Y142000D03*
D14*
X607060Y12700D03*
X632460Y12700D03*
X657860Y12700D03*
X683260Y12700D03*
D12*
X532210Y155000D03*
X532210Y99000D03*
D13*
X568960Y142000D03*
X568960Y132000D03*
X568960Y122000D03*
X568960Y112000D03*
D10*
X746760Y25400D03*
X746760Y228600D03*
D15*
X547050Y183080D02*
X540070Y183080D01*
X540070Y190060D01*
X547050Y190060D01*
X547050Y183080D01*
X547050Y187880D02*
X540070Y187880D01*
X540070Y165540D02*
X547050Y165540D01*
X540070Y165540D02*
X540070Y172520D01*
X547050Y172520D01*
X547050Y165540D01*
X547050Y170340D02*
X540070Y170340D01*
D16*
X568960Y169300D03*
X568960Y186300D03*
X581660Y29600D03*
X581660Y46600D03*
X708660Y29600D03*
X708660Y46600D03*
D17*
X645160Y127000D03*
D18*
X605160Y152000D03*
D19*
X605160Y139500D03*
X605160Y127000D03*
X605160Y114500D03*
X605160Y102000D03*
D20*
X620160Y87000D03*
X632660Y87000D03*
X645160Y87000D03*
X657660Y87000D03*
X670160Y87000D03*
D19*
X685160Y102000D03*
X685160Y114500D03*
X685160Y127000D03*
X685160Y139500D03*
X685160Y152000D03*
D20*
X670160Y167000D03*
X657660Y167000D03*
X645160Y167000D03*
X632660Y167000D03*
X620160Y167000D03*
D21*
X628260Y190500D03*
X611260Y190500D03*
X662060Y190500D03*
X679060Y190500D03*
D10*
X802640Y25400D03*
X802640Y228600D03*
D11*
X1024890Y247650D03*
X783590Y6350D03*
D12*
X1017190Y99000D03*
X1017190Y155000D03*
D13*
X980440Y112000D03*
X980440Y122000D03*
X980440Y132000D03*
X980440Y142000D03*
D14*
X866140Y12700D03*
X891540Y12700D03*
X916940Y12700D03*
X942340Y12700D03*
D12*
X791290Y155000D03*
X791290Y99000D03*
D13*
X828040Y142000D03*
X828040Y132000D03*
X828040Y122000D03*
X828040Y112000D03*
D10*
X1005840Y25400D03*
X1005840Y228600D03*
D15*
X806130Y183080D02*
X799150Y183080D01*
X799150Y190060D01*
X806130Y190060D01*
X806130Y183080D01*
X806130Y187880D02*
X799150Y187880D01*
X799150Y165540D02*
X806130Y165540D01*
X799150Y165540D02*
X799150Y172520D01*
X806130Y172520D01*
X806130Y165540D01*
X806130Y170340D02*
X799150Y170340D01*
D16*
X828040Y169300D03*
X828040Y186300D03*
X840740Y29600D03*
X840740Y46600D03*
X967740Y29600D03*
X967740Y46600D03*
D17*
X904240Y127000D03*
D18*
X864240Y152000D03*
D19*
X864240Y139500D03*
X864240Y127000D03*
X864240Y114500D03*
X864240Y102000D03*
D20*
X879240Y87000D03*
X891740Y87000D03*
X904240Y87000D03*
X916740Y87000D03*
X929240Y87000D03*
D19*
X944240Y102000D03*
X944240Y114500D03*
X944240Y127000D03*
X944240Y139500D03*
X944240Y152000D03*
D20*
X929240Y167000D03*
X916740Y167000D03*
X904240Y167000D03*
X891740Y167000D03*
X879240Y167000D03*
D21*
X887340Y190500D03*
X870340Y190500D03*
X921140Y190500D03*
X938140Y190500D03*
D10*
X1061720Y25400D03*
X1061720Y228600D03*
D11*
X1283970Y247650D03*
X1042670Y6350D03*
D12*
X1276270Y99000D03*
X1276270Y155000D03*
D13*
X1239520Y112000D03*
X1239520Y122000D03*
X1239520Y132000D03*
X1239520Y142000D03*
D14*
X1125220Y12700D03*
X1150620Y12700D03*
X1176020Y12700D03*
X1201420Y12700D03*
D12*
X1050370Y155000D03*
X1050370Y99000D03*
D13*
X1087120Y142000D03*
X1087120Y132000D03*
X1087120Y122000D03*
X1087120Y112000D03*
D10*
X1264920Y25400D03*
X1264920Y228600D03*
D15*
X1065210Y183080D02*
X1058230Y183080D01*
X1058230Y190060D01*
X1065210Y190060D01*
X1065210Y183080D01*
X1065210Y187880D02*
X1058230Y187880D01*
X1058230Y165540D02*
X1065210Y165540D01*
X1058230Y165540D02*
X1058230Y172520D01*
X1065210Y172520D01*
X1065210Y165540D01*
X1065210Y170340D02*
X1058230Y170340D01*
D16*
X1087120Y169300D03*
X1087120Y186300D03*
X1099820Y29600D03*
X1099820Y46600D03*
X1226820Y29600D03*
X1226820Y46600D03*
D17*
X1163320Y127000D03*
D18*
X1123320Y152000D03*
D19*
X1123320Y139500D03*
X1123320Y127000D03*
X1123320Y114500D03*
X1123320Y102000D03*
D20*
X1138320Y87000D03*
X1150820Y87000D03*
X1163320Y87000D03*
X1175820Y87000D03*
X1188320Y87000D03*
D19*
X1203320Y102000D03*
X1203320Y114500D03*
X1203320Y127000D03*
X1203320Y139500D03*
X1203320Y152000D03*
D20*
X1188320Y167000D03*
X1175820Y167000D03*
X1163320Y167000D03*
X1150820Y167000D03*
X1138320Y167000D03*
D21*
X1146420Y190500D03*
X1129420Y190500D03*
X1180220Y190500D03*
X1197220Y190500D03*
D10*
X25400Y284480D03*
X25400Y487680D03*
D11*
X247650Y506730D03*
X6350Y265430D03*
D12*
X239950Y358080D03*
X239950Y414080D03*
D13*
X203200Y371080D03*
X203200Y381080D03*
X203200Y391080D03*
X203200Y401080D03*
D14*
X88900Y271780D03*
X114300Y271780D03*
X139700Y271780D03*
X165100Y271780D03*
D12*
X14050Y414080D03*
X14050Y358080D03*
D13*
X50800Y401080D03*
X50800Y391080D03*
X50800Y381080D03*
X50800Y371080D03*
D10*
X228600Y284480D03*
X228600Y487680D03*
D15*
X28890Y442160D02*
X21910Y442160D01*
X21910Y449140D01*
X28890Y449140D01*
X28890Y442160D01*
X28890Y446960D02*
X21910Y446960D01*
X21910Y424620D02*
X28890Y424620D01*
X21910Y424620D02*
X21910Y431600D01*
X28890Y431600D01*
X28890Y424620D01*
X28890Y429420D02*
X21910Y429420D01*
D16*
X50800Y428380D03*
X50800Y445380D03*
X63500Y288680D03*
X63500Y305680D03*
X190500Y288680D03*
X190500Y305680D03*
D17*
X127000Y386080D03*
D18*
X87000Y411080D03*
D19*
X87000Y398580D03*
X87000Y386080D03*
X87000Y373580D03*
X87000Y361080D03*
D20*
X102000Y346080D03*
X114500Y346080D03*
X127000Y346080D03*
X139500Y346080D03*
X152000Y346080D03*
D19*
X167000Y361080D03*
X167000Y373580D03*
X167000Y386080D03*
X167000Y398580D03*
X167000Y411080D03*
D20*
X152000Y426080D03*
X139500Y426080D03*
X127000Y426080D03*
X114500Y426080D03*
X102000Y426080D03*
D21*
X110100Y449580D03*
X93100Y449580D03*
X143900Y449580D03*
X160900Y449580D03*
D10*
X284480Y284480D03*
X284480Y487680D03*
D11*
X506730Y506730D03*
X265430Y265430D03*
D12*
X499030Y358080D03*
X499030Y414080D03*
D13*
X462280Y371080D03*
X462280Y381080D03*
X462280Y391080D03*
X462280Y401080D03*
D14*
X347980Y271780D03*
X373380Y271780D03*
X398780Y271780D03*
X424180Y271780D03*
D12*
X273130Y414080D03*
X273130Y358080D03*
D13*
X309880Y401080D03*
X309880Y391080D03*
X309880Y381080D03*
X309880Y371080D03*
D10*
X487680Y284480D03*
X487680Y487680D03*
D15*
X287970Y442160D02*
X280990Y442160D01*
X280990Y449140D01*
X287970Y449140D01*
X287970Y442160D01*
X287970Y446960D02*
X280990Y446960D01*
X280990Y424620D02*
X287970Y424620D01*
X280990Y424620D02*
X280990Y431600D01*
X287970Y431600D01*
X287970Y424620D01*
X287970Y429420D02*
X280990Y429420D01*
D16*
X309880Y428380D03*
X309880Y445380D03*
X322580Y288680D03*
X322580Y305680D03*
X449580Y288680D03*
X449580Y305680D03*
D17*
X386080Y386080D03*
D18*
X346080Y411080D03*
D19*
X346080Y398580D03*
X346080Y386080D03*
X346080Y373580D03*
X346080Y361080D03*
D20*
X361080Y346080D03*
X373580Y346080D03*
X386080Y346080D03*
X398580Y346080D03*
X411080Y346080D03*
D19*
X426080Y361080D03*
X426080Y373580D03*
X426080Y386080D03*
X426080Y398580D03*
X426080Y411080D03*
D20*
X411080Y426080D03*
X398580Y426080D03*
X386080Y426080D03*
X373580Y426080D03*
X361080Y426080D03*
D21*
X369180Y449580D03*
X352180Y449580D03*
X402980Y449580D03*
X419980Y449580D03*
D10*
X543560Y284480D03*
X543560Y487680D03*
D11*
X765810Y506730D03*
X524510Y265430D03*
D12*
X758110Y358080D03*
X758110Y414080D03*
D13*
X721360Y371080D03*
X721360Y381080D03*
X721360Y391080D03*
X721360Y401080D03*
D14*
X607060Y271780D03*
X632460Y271780D03*
X657860Y271780D03*
X683260Y271780D03*
D12*
X532210Y414080D03*
X532210Y358080D03*
D13*
X568960Y401080D03*
X568960Y391080D03*
X568960Y381080D03*
X568960Y371080D03*
D10*
X746760Y284480D03*
X746760Y487680D03*
D15*
X547050Y442160D02*
X540070Y442160D01*
X540070Y449140D01*
X547050Y449140D01*
X547050Y442160D01*
X547050Y446960D02*
X540070Y446960D01*
X540070Y424620D02*
X547050Y424620D01*
X540070Y424620D02*
X540070Y431600D01*
X547050Y431600D01*
X547050Y424620D01*
X547050Y429420D02*
X540070Y429420D01*
D16*
X568960Y428380D03*
X568960Y445380D03*
X581660Y288680D03*
X581660Y305680D03*
X708660Y288680D03*
X708660Y305680D03*
D17*
X645160Y386080D03*
D18*
X605160Y411080D03*
D19*
X605160Y398580D03*
X605160Y386080D03*
X605160Y373580D03*
X605160Y361080D03*
D20*
X620160Y346080D03*
X632660Y346080D03*
X645160Y346080D03*
X657660Y346080D03*
X670160Y346080D03*
D19*
X685160Y361080D03*
X685160Y373580D03*
X685160Y386080D03*
X685160Y398580D03*
X685160Y411080D03*
D20*
X670160Y426080D03*
X657660Y426080D03*
X645160Y426080D03*
X632660Y426080D03*
X620160Y426080D03*
D21*
X628260Y449580D03*
X611260Y449580D03*
X662060Y449580D03*
X679060Y449580D03*
D10*
X802640Y284480D03*
X802640Y487680D03*
D11*
X1024890Y506730D03*
X783590Y265430D03*
D12*
X1017190Y358080D03*
X1017190Y414080D03*
D13*
X980440Y371080D03*
X980440Y381080D03*
X980440Y391080D03*
X980440Y401080D03*
D14*
X866140Y271780D03*
X891540Y271780D03*
X916940Y271780D03*
X942340Y271780D03*
D12*
X791290Y414080D03*
X791290Y358080D03*
D13*
X828040Y401080D03*
X828040Y391080D03*
X828040Y381080D03*
X828040Y371080D03*
D10*
X1005840Y284480D03*
X1005840Y487680D03*
D15*
X806130Y442160D02*
X799150Y442160D01*
X799150Y449140D01*
X806130Y449140D01*
X806130Y442160D01*
X806130Y446960D02*
X799150Y446960D01*
X799150Y424620D02*
X806130Y424620D01*
X799150Y424620D02*
X799150Y431600D01*
X806130Y431600D01*
X806130Y424620D01*
X806130Y429420D02*
X799150Y429420D01*
D16*
X828040Y428380D03*
X828040Y445380D03*
X840740Y288680D03*
X840740Y305680D03*
X967740Y288680D03*
X967740Y305680D03*
D17*
X904240Y386080D03*
D18*
X864240Y411080D03*
D19*
X864240Y398580D03*
X864240Y386080D03*
X864240Y373580D03*
X864240Y361080D03*
D20*
X879240Y346080D03*
X891740Y346080D03*
X904240Y346080D03*
X916740Y346080D03*
X929240Y346080D03*
D19*
X944240Y361080D03*
X944240Y373580D03*
X944240Y386080D03*
X944240Y398580D03*
X944240Y411080D03*
D20*
X929240Y426080D03*
X916740Y426080D03*
X904240Y426080D03*
X891740Y426080D03*
X879240Y426080D03*
D21*
X887340Y449580D03*
X870340Y449580D03*
X921140Y449580D03*
X938140Y449580D03*
D10*
X1061720Y284480D03*
X1061720Y487680D03*
D11*
X1283970Y506730D03*
X1042670Y265430D03*
D12*
X1276270Y358080D03*
X1276270Y414080D03*
D13*
X1239520Y371080D03*
X1239520Y381080D03*
X1239520Y391080D03*
X1239520Y401080D03*
D14*
X1125220Y271780D03*
X1150620Y271780D03*
X1176020Y271780D03*
X1201420Y271780D03*
D12*
X1050370Y414080D03*
X1050370Y358080D03*
D13*
X1087120Y401080D03*
X1087120Y391080D03*
X1087120Y381080D03*
X1087120Y371080D03*
D10*
X1264920Y284480D03*
X1264920Y487680D03*
D15*
X1065210Y442160D02*
X1058230Y442160D01*
X1058230Y449140D01*
X1065210Y449140D01*
X1065210Y442160D01*
X1065210Y446960D02*
X1058230Y446960D01*
X1058230Y424620D02*
X1065210Y424620D01*
X1058230Y424620D02*
X1058230Y431600D01*
X1065210Y431600D01*
X1065210Y424620D01*
X1065210Y429420D02*
X1058230Y429420D01*
D16*
X1087120Y428380D03*
X1087120Y445380D03*
X1099820Y288680D03*
X1099820Y305680D03*
X1226820Y288680D03*
X1226820Y305680D03*
D17*
X1163320Y386080D03*
D18*
X1123320Y411080D03*
D19*
X1123320Y398580D03*
X1123320Y386080D03*
X1123320Y373580D03*
X1123320Y361080D03*
D20*
X1138320Y346080D03*
X1150820Y346080D03*
X1163320Y346080D03*
X1175820Y346080D03*
X1188320Y346080D03*
D19*
X1203320Y361080D03*
X1203320Y373580D03*
X1203320Y386080D03*
X1203320Y398580D03*
X1203320Y411080D03*
D20*
X1188320Y426080D03*
X1175820Y426080D03*
X1163320Y426080D03*
X1150820Y426080D03*
X1138320Y426080D03*
D21*
X1146420Y449580D03*
X1129420Y449580D03*
X1180220Y449580D03*
X1197220Y449580D03*
D10*
X25400Y543560D03*
X25400Y746760D03*
D11*
X247650Y765810D03*
X6350Y524510D03*
D12*
X239950Y617160D03*
X239950Y673160D03*
D13*
X203200Y630160D03*
X203200Y640160D03*
X203200Y650160D03*
X203200Y660160D03*
D14*
X88900Y530860D03*
X114300Y530860D03*
X139700Y530860D03*
X165100Y530860D03*
D12*
X14050Y673160D03*
X14050Y617160D03*
D13*
X50800Y660160D03*
X50800Y650160D03*
X50800Y640160D03*
X50800Y630160D03*
D10*
X228600Y543560D03*
X228600Y746760D03*
D15*
X28890Y701240D02*
X21910Y701240D01*
X21910Y708220D01*
X28890Y708220D01*
X28890Y701240D01*
X28890Y706040D02*
X21910Y706040D01*
X21910Y683700D02*
X28890Y683700D01*
X21910Y683700D02*
X21910Y690680D01*
X28890Y690680D01*
X28890Y683700D01*
X28890Y688500D02*
X21910Y688500D01*
D16*
X50800Y687460D03*
X50800Y704460D03*
X63500Y547760D03*
X63500Y564760D03*
X190500Y547760D03*
X190500Y564760D03*
D17*
X127000Y645160D03*
D18*
X87000Y670160D03*
D19*
X87000Y657660D03*
X87000Y645160D03*
X87000Y632660D03*
X87000Y620160D03*
D20*
X102000Y605160D03*
X114500Y605160D03*
X127000Y605160D03*
X139500Y605160D03*
X152000Y605160D03*
D19*
X167000Y620160D03*
X167000Y632660D03*
X167000Y645160D03*
X167000Y657660D03*
X167000Y670160D03*
D20*
X152000Y685160D03*
X139500Y685160D03*
X127000Y685160D03*
X114500Y685160D03*
X102000Y685160D03*
D21*
X110100Y708660D03*
X93100Y708660D03*
X143900Y708660D03*
X160900Y708660D03*
D10*
X284480Y543560D03*
X284480Y746760D03*
D11*
X506730Y765810D03*
X265430Y524510D03*
D12*
X499030Y617160D03*
X499030Y673160D03*
D13*
X462280Y630160D03*
X462280Y640160D03*
X462280Y650160D03*
X462280Y660160D03*
D14*
X347980Y530860D03*
X373380Y530860D03*
X398780Y530860D03*
X424180Y530860D03*
D12*
X273130Y673160D03*
X273130Y617160D03*
D13*
X309880Y660160D03*
X309880Y650160D03*
X309880Y640160D03*
X309880Y630160D03*
D10*
X487680Y543560D03*
X487680Y746760D03*
D15*
X287970Y701240D02*
X280990Y701240D01*
X280990Y708220D01*
X287970Y708220D01*
X287970Y701240D01*
X287970Y706040D02*
X280990Y706040D01*
X280990Y683700D02*
X287970Y683700D01*
X280990Y683700D02*
X280990Y690680D01*
X287970Y690680D01*
X287970Y683700D01*
X287970Y688500D02*
X280990Y688500D01*
D16*
X309880Y687460D03*
X309880Y704460D03*
X322580Y547760D03*
X322580Y564760D03*
X449580Y547760D03*
X449580Y564760D03*
D17*
X386080Y645160D03*
D18*
X346080Y670160D03*
D19*
X346080Y657660D03*
X346080Y645160D03*
X346080Y632660D03*
X346080Y620160D03*
D20*
X361080Y605160D03*
X373580Y605160D03*
X386080Y605160D03*
X398580Y605160D03*
X411080Y605160D03*
D19*
X426080Y620160D03*
X426080Y632660D03*
X426080Y645160D03*
X426080Y657660D03*
X426080Y670160D03*
D20*
X411080Y685160D03*
X398580Y685160D03*
X386080Y685160D03*
X373580Y685160D03*
X361080Y685160D03*
D21*
X369180Y708660D03*
X352180Y708660D03*
X402980Y708660D03*
X419980Y708660D03*
D10*
X543560Y543560D03*
X543560Y746760D03*
D11*
X765810Y765810D03*
X524510Y524510D03*
D12*
X758110Y617160D03*
X758110Y673160D03*
D13*
X721360Y630160D03*
X721360Y640160D03*
X721360Y650160D03*
X721360Y660160D03*
D14*
X607060Y530860D03*
X632460Y530860D03*
X657860Y530860D03*
X683260Y530860D03*
D12*
X532210Y673160D03*
X532210Y617160D03*
D13*
X568960Y660160D03*
X568960Y650160D03*
X568960Y640160D03*
X568960Y630160D03*
D10*
X746760Y543560D03*
X746760Y746760D03*
D15*
X547050Y701240D02*
X540070Y701240D01*
X540070Y708220D01*
X547050Y708220D01*
X547050Y701240D01*
X547050Y706040D02*
X540070Y706040D01*
X540070Y683700D02*
X547050Y683700D01*
X540070Y683700D02*
X540070Y690680D01*
X547050Y690680D01*
X547050Y683700D01*
X547050Y688500D02*
X540070Y688500D01*
D16*
X568960Y687460D03*
X568960Y704460D03*
X581660Y547760D03*
X581660Y564760D03*
X708660Y547760D03*
X708660Y564760D03*
D17*
X645160Y645160D03*
D18*
X605160Y670160D03*
D19*
X605160Y657660D03*
X605160Y645160D03*
X605160Y632660D03*
X605160Y620160D03*
D20*
X620160Y605160D03*
X632660Y605160D03*
X645160Y605160D03*
X657660Y605160D03*
X670160Y605160D03*
D19*
X685160Y620160D03*
X685160Y632660D03*
X685160Y645160D03*
X685160Y657660D03*
X685160Y670160D03*
D20*
X670160Y685160D03*
X657660Y685160D03*
X645160Y685160D03*
X632660Y685160D03*
X620160Y685160D03*
D21*
X628260Y708660D03*
X611260Y708660D03*
X662060Y708660D03*
X679060Y708660D03*
D10*
X802640Y543560D03*
X802640Y746760D03*
D11*
X1024890Y765810D03*
X783590Y524510D03*
D12*
X1017190Y617160D03*
X1017190Y673160D03*
D13*
X980440Y630160D03*
X980440Y640160D03*
X980440Y650160D03*
X980440Y660160D03*
D14*
X866140Y530860D03*
X891540Y530860D03*
X916940Y530860D03*
X942340Y530860D03*
D12*
X791290Y673160D03*
X791290Y617160D03*
D13*
X828040Y660160D03*
X828040Y650160D03*
X828040Y640160D03*
X828040Y630160D03*
D10*
X1005840Y543560D03*
X1005840Y746760D03*
D15*
X806130Y701240D02*
X799150Y701240D01*
X799150Y708220D01*
X806130Y708220D01*
X806130Y701240D01*
X806130Y706040D02*
X799150Y706040D01*
X799150Y683700D02*
X806130Y683700D01*
X799150Y683700D02*
X799150Y690680D01*
X806130Y690680D01*
X806130Y683700D01*
X806130Y688500D02*
X799150Y688500D01*
D16*
X828040Y687460D03*
X828040Y704460D03*
X840740Y547760D03*
X840740Y564760D03*
X967740Y547760D03*
X967740Y564760D03*
D17*
X904240Y645160D03*
D18*
X864240Y670160D03*
D19*
X864240Y657660D03*
X864240Y645160D03*
X864240Y632660D03*
X864240Y620160D03*
D20*
X879240Y605160D03*
X891740Y605160D03*
X904240Y605160D03*
X916740Y605160D03*
X929240Y605160D03*
D19*
X944240Y620160D03*
X944240Y632660D03*
X944240Y645160D03*
X944240Y657660D03*
X944240Y670160D03*
D20*
X929240Y685160D03*
X916740Y685160D03*
X904240Y685160D03*
X891740Y685160D03*
X879240Y685160D03*
D21*
X887340Y708660D03*
X870340Y708660D03*
X921140Y708660D03*
X938140Y708660D03*
D10*
X1061720Y543560D03*
X1061720Y746760D03*
D11*
X1283970Y765810D03*
X1042670Y524510D03*
D12*
X1276270Y617160D03*
X1276270Y673160D03*
D13*
X1239520Y630160D03*
X1239520Y640160D03*
X1239520Y650160D03*
X1239520Y660160D03*
D14*
X1125220Y530860D03*
X1150620Y530860D03*
X1176020Y530860D03*
X1201420Y530860D03*
D12*
X1050370Y673160D03*
X1050370Y617160D03*
D13*
X1087120Y660160D03*
X1087120Y650160D03*
X1087120Y640160D03*
X1087120Y630160D03*
D10*
X1264920Y543560D03*
X1264920Y746760D03*
D15*
X1065210Y701240D02*
X1058230Y701240D01*
X1058230Y708220D01*
X1065210Y708220D01*
X1065210Y701240D01*
X1065210Y706040D02*
X1058230Y706040D01*
X1058230Y683700D02*
X1065210Y683700D01*
X1058230Y683700D02*
X1058230Y690680D01*
X1065210Y690680D01*
X1065210Y683700D01*
X1065210Y688500D02*
X1058230Y688500D01*
D16*
X1087120Y687460D03*
X1087120Y704460D03*
X1099820Y547760D03*
X1099820Y564760D03*
X1226820Y547760D03*
X1226820Y564760D03*
D17*
X1163320Y645160D03*
D18*
X1123320Y670160D03*
D19*
X1123320Y657660D03*
X1123320Y645160D03*
X1123320Y632660D03*
X1123320Y620160D03*
D20*
X1138320Y605160D03*
X1150820Y605160D03*
X1163320Y605160D03*
X1175820Y605160D03*
X1188320Y605160D03*
D19*
X1203320Y620160D03*
X1203320Y632660D03*
X1203320Y645160D03*
X1203320Y657660D03*
X1203320Y670160D03*
D20*
X1188320Y685160D03*
X1175820Y685160D03*
X1163320Y685160D03*
X1150820Y685160D03*
X1138320Y685160D03*
D21*
X1146420Y708660D03*
X1129420Y708660D03*
X1180220Y708660D03*
X1197220Y708660D03*
D10*
X25400Y802640D03*
X25400Y1005840D03*
D11*
X247650Y1024890D03*
X6350Y783590D03*
D12*
X239950Y876240D03*
X239950Y932240D03*
D13*
X203200Y889240D03*
X203200Y899240D03*
X203200Y909240D03*
X203200Y919240D03*
D14*
X88900Y789940D03*
X114300Y789940D03*
X139700Y789940D03*
X165100Y789940D03*
D12*
X14050Y932240D03*
X14050Y876240D03*
D13*
X50800Y919240D03*
X50800Y909240D03*
X50800Y899240D03*
X50800Y889240D03*
D10*
X228600Y802640D03*
X228600Y1005840D03*
D15*
X28890Y960320D02*
X21910Y960320D01*
X21910Y967300D01*
X28890Y967300D01*
X28890Y960320D01*
X28890Y965120D02*
X21910Y965120D01*
X21910Y942780D02*
X28890Y942780D01*
X21910Y942780D02*
X21910Y949760D01*
X28890Y949760D01*
X28890Y942780D01*
X28890Y947580D02*
X21910Y947580D01*
D16*
X50800Y946540D03*
X50800Y963540D03*
X63500Y806840D03*
X63500Y823840D03*
X190500Y806840D03*
X190500Y823840D03*
D17*
X127000Y904240D03*
D18*
X87000Y929240D03*
D19*
X87000Y916740D03*
X87000Y904240D03*
X87000Y891740D03*
X87000Y879240D03*
D20*
X102000Y864240D03*
X114500Y864240D03*
X127000Y864240D03*
X139500Y864240D03*
X152000Y864240D03*
D19*
X167000Y879240D03*
X167000Y891740D03*
X167000Y904240D03*
X167000Y916740D03*
X167000Y929240D03*
D20*
X152000Y944240D03*
X139500Y944240D03*
X127000Y944240D03*
X114500Y944240D03*
X102000Y944240D03*
D21*
X110100Y967740D03*
X93100Y967740D03*
X143900Y967740D03*
X160900Y967740D03*
D10*
X284480Y802640D03*
X284480Y1005840D03*
D11*
X506730Y1024890D03*
X265430Y783590D03*
D12*
X499030Y876240D03*
X499030Y932240D03*
D13*
X462280Y889240D03*
X462280Y899240D03*
X462280Y909240D03*
X462280Y919240D03*
D14*
X347980Y789940D03*
X373380Y789940D03*
X398780Y789940D03*
X424180Y789940D03*
D12*
X273130Y932240D03*
X273130Y876240D03*
D13*
X309880Y919240D03*
X309880Y909240D03*
X309880Y899240D03*
X309880Y889240D03*
D10*
X487680Y802640D03*
X487680Y1005840D03*
D15*
X287970Y960320D02*
X280990Y960320D01*
X280990Y967300D01*
X287970Y967300D01*
X287970Y960320D01*
X287970Y965120D02*
X280990Y965120D01*
X280990Y942780D02*
X287970Y942780D01*
X280990Y942780D02*
X280990Y949760D01*
X287970Y949760D01*
X287970Y942780D01*
X287970Y947580D02*
X280990Y947580D01*
D16*
X309880Y946540D03*
X309880Y963540D03*
X322580Y806840D03*
X322580Y823840D03*
X449580Y806840D03*
X449580Y823840D03*
D17*
X386080Y904240D03*
D18*
X346080Y929240D03*
D19*
X346080Y916740D03*
X346080Y904240D03*
X346080Y891740D03*
X346080Y879240D03*
D20*
X361080Y864240D03*
X373580Y864240D03*
X386080Y864240D03*
X398580Y864240D03*
X411080Y864240D03*
D19*
X426080Y879240D03*
X426080Y891740D03*
X426080Y904240D03*
X426080Y916740D03*
X426080Y929240D03*
D20*
X411080Y944240D03*
X398580Y944240D03*
X386080Y944240D03*
X373580Y944240D03*
X361080Y944240D03*
D21*
X369180Y967740D03*
X352180Y967740D03*
X402980Y967740D03*
X419980Y967740D03*
D10*
X543560Y802640D03*
X543560Y1005840D03*
D11*
X765810Y1024890D03*
X524510Y783590D03*
D12*
X758110Y876240D03*
X758110Y932240D03*
D13*
X721360Y889240D03*
X721360Y899240D03*
X721360Y909240D03*
X721360Y919240D03*
D14*
X607060Y789940D03*
X632460Y789940D03*
X657860Y789940D03*
X683260Y789940D03*
D12*
X532210Y932240D03*
X532210Y876240D03*
D13*
X568960Y919240D03*
X568960Y909240D03*
X568960Y899240D03*
X568960Y889240D03*
D10*
X746760Y802640D03*
X746760Y1005840D03*
D15*
X547050Y960320D02*
X540070Y960320D01*
X540070Y967300D01*
X547050Y967300D01*
X547050Y960320D01*
X547050Y965120D02*
X540070Y965120D01*
X540070Y942780D02*
X547050Y942780D01*
X540070Y942780D02*
X540070Y949760D01*
X547050Y949760D01*
X547050Y942780D01*
X547050Y947580D02*
X540070Y947580D01*
D16*
X568960Y946540D03*
X568960Y963540D03*
X581660Y806840D03*
X581660Y823840D03*
X708660Y806840D03*
X708660Y823840D03*
D17*
X645160Y904240D03*
D18*
X605160Y929240D03*
D19*
X605160Y916740D03*
X605160Y904240D03*
X605160Y891740D03*
X605160Y879240D03*
D20*
X620160Y864240D03*
X632660Y864240D03*
X645160Y864240D03*
X657660Y864240D03*
X670160Y864240D03*
D19*
X685160Y879240D03*
X685160Y891740D03*
X685160Y904240D03*
X685160Y916740D03*
X685160Y929240D03*
D20*
X670160Y944240D03*
X657660Y944240D03*
X645160Y944240D03*
X632660Y944240D03*
X620160Y944240D03*
D21*
X628260Y967740D03*
X611260Y967740D03*
X662060Y967740D03*
X679060Y967740D03*
D10*
X802640Y802640D03*
X802640Y1005840D03*
D11*
X1024890Y1024890D03*
X783590Y783590D03*
D12*
X1017190Y876240D03*
X1017190Y932240D03*
D13*
X980440Y889240D03*
X980440Y899240D03*
X980440Y909240D03*
X980440Y919240D03*
D14*
X866140Y789940D03*
X891540Y789940D03*
X916940Y789940D03*
X942340Y789940D03*
D12*
X791290Y932240D03*
X791290Y876240D03*
D13*
X828040Y919240D03*
X828040Y909240D03*
X828040Y899240D03*
X828040Y889240D03*
D10*
X1005840Y802640D03*
X1005840Y1005840D03*
D15*
X806130Y960320D02*
X799150Y960320D01*
X799150Y967300D01*
X806130Y967300D01*
X806130Y960320D01*
X806130Y965120D02*
X799150Y965120D01*
X799150Y942780D02*
X806130Y942780D01*
X799150Y942780D02*
X799150Y949760D01*
X806130Y949760D01*
X806130Y942780D01*
X806130Y947580D02*
X799150Y947580D01*
D16*
X828040Y946540D03*
X828040Y963540D03*
X840740Y806840D03*
X840740Y823840D03*
X967740Y806840D03*
X967740Y823840D03*
D17*
X904240Y904240D03*
D18*
X864240Y929240D03*
D19*
X864240Y916740D03*
X864240Y904240D03*
X864240Y891740D03*
X864240Y879240D03*
D20*
X879240Y864240D03*
X891740Y864240D03*
X904240Y864240D03*
X916740Y864240D03*
X929240Y864240D03*
D19*
X944240Y879240D03*
X944240Y891740D03*
X944240Y904240D03*
X944240Y916740D03*
X944240Y929240D03*
D20*
X929240Y944240D03*
X916740Y944240D03*
X904240Y944240D03*
X891740Y944240D03*
X879240Y944240D03*
D21*
X887340Y967740D03*
X870340Y967740D03*
X921140Y967740D03*
X938140Y967740D03*
D10*
X1061720Y802640D03*
X1061720Y1005840D03*
D11*
X1283970Y1024890D03*
X1042670Y783590D03*
D12*
X1276270Y876240D03*
X1276270Y932240D03*
D13*
X1239520Y889240D03*
X1239520Y899240D03*
X1239520Y909240D03*
X1239520Y919240D03*
D14*
X1125220Y789940D03*
X1150620Y789940D03*
X1176020Y789940D03*
X1201420Y789940D03*
D12*
X1050370Y932240D03*
X1050370Y876240D03*
D13*
X1087120Y919240D03*
X1087120Y909240D03*
X1087120Y899240D03*
X1087120Y889240D03*
D10*
X1264920Y802640D03*
X1264920Y1005840D03*
D15*
X1065210Y960320D02*
X1058230Y960320D01*
X1058230Y967300D01*
X1065210Y967300D01*
X1065210Y960320D01*
X1065210Y965120D02*
X1058230Y965120D01*
X1058230Y942780D02*
X1065210Y942780D01*
X1058230Y942780D02*
X1058230Y949760D01*
X1065210Y949760D01*
X1065210Y942780D01*
X1065210Y947580D02*
X1058230Y947580D01*
D16*
X1087120Y946540D03*
X1087120Y963540D03*
X1099820Y806840D03*
X1099820Y823840D03*
X1226820Y806840D03*
X1226820Y823840D03*
D17*
X1163320Y904240D03*
D18*
X1123320Y929240D03*
D19*
X1123320Y916740D03*
X1123320Y904240D03*
X1123320Y891740D03*
X1123320Y879240D03*
D20*
X1138320Y864240D03*
X1150820Y864240D03*
X1163320Y864240D03*
X1175820Y864240D03*
X1188320Y864240D03*
D19*
X1203320Y879240D03*
X1203320Y891740D03*
X1203320Y904240D03*
X1203320Y916740D03*
X1203320Y929240D03*
D20*
X1188320Y944240D03*
X1175820Y944240D03*
X1163320Y944240D03*
X1150820Y944240D03*
X1138320Y944240D03*
D21*
X1146420Y967740D03*
X1129420Y967740D03*
X1180220Y967740D03*
X1197220Y967740D03*
D10*
X25400Y1061720D03*
X25400Y1264920D03*
D11*
X247650Y1283970D03*
X6350Y1042670D03*
D12*
X239950Y1135320D03*
X239950Y1191320D03*
D13*
X203200Y1148320D03*
X203200Y1158320D03*
X203200Y1168320D03*
X203200Y1178320D03*
D14*
X88900Y1049020D03*
X114300Y1049020D03*
X139700Y1049020D03*
X165100Y1049020D03*
D12*
X14050Y1191320D03*
X14050Y1135320D03*
D13*
X50800Y1178320D03*
X50800Y1168320D03*
X50800Y1158320D03*
X50800Y1148320D03*
D10*
X228600Y1061720D03*
X228600Y1264920D03*
D15*
X28890Y1219400D02*
X21910Y1219400D01*
X21910Y1226380D01*
X28890Y1226380D01*
X28890Y1219400D01*
X28890Y1224200D02*
X21910Y1224200D01*
X21910Y1201860D02*
X28890Y1201860D01*
X21910Y1201860D02*
X21910Y1208840D01*
X28890Y1208840D01*
X28890Y1201860D01*
X28890Y1206660D02*
X21910Y1206660D01*
D16*
X50800Y1205620D03*
X50800Y1222620D03*
X63500Y1065920D03*
X63500Y1082920D03*
X190500Y1065920D03*
X190500Y1082920D03*
D17*
X127000Y1163320D03*
D18*
X87000Y1188320D03*
D19*
X87000Y1175820D03*
X87000Y1163320D03*
X87000Y1150820D03*
X87000Y1138320D03*
D20*
X102000Y1123320D03*
X114500Y1123320D03*
X127000Y1123320D03*
X139500Y1123320D03*
X152000Y1123320D03*
D19*
X167000Y1138320D03*
X167000Y1150820D03*
X167000Y1163320D03*
X167000Y1175820D03*
X167000Y1188320D03*
D20*
X152000Y1203320D03*
X139500Y1203320D03*
X127000Y1203320D03*
X114500Y1203320D03*
X102000Y1203320D03*
D21*
X110100Y1226820D03*
X93100Y1226820D03*
X143900Y1226820D03*
X160900Y1226820D03*
D10*
X284480Y1061720D03*
X284480Y1264920D03*
D11*
X506730Y1283970D03*
X265430Y1042670D03*
D12*
X499030Y1135320D03*
X499030Y1191320D03*
D13*
X462280Y1148320D03*
X462280Y1158320D03*
X462280Y1168320D03*
X462280Y1178320D03*
D14*
X347980Y1049020D03*
X373380Y1049020D03*
X398780Y1049020D03*
X424180Y1049020D03*
D12*
X273130Y1191320D03*
X273130Y1135320D03*
D13*
X309880Y1178320D03*
X309880Y1168320D03*
X309880Y1158320D03*
X309880Y1148320D03*
D10*
X487680Y1061720D03*
X487680Y1264920D03*
D15*
X287970Y1219400D02*
X280990Y1219400D01*
X280990Y1226380D01*
X287970Y1226380D01*
X287970Y1219400D01*
X287970Y1224200D02*
X280990Y1224200D01*
X280990Y1201860D02*
X287970Y1201860D01*
X280990Y1201860D02*
X280990Y1208840D01*
X287970Y1208840D01*
X287970Y1201860D01*
X287970Y1206660D02*
X280990Y1206660D01*
D16*
X309880Y1205620D03*
X309880Y1222620D03*
X322580Y1065920D03*
X322580Y1082920D03*
X449580Y1065920D03*
X449580Y1082920D03*
D17*
X386080Y1163320D03*
D18*
X346080Y1188320D03*
D19*
X346080Y1175820D03*
X346080Y1163320D03*
X346080Y1150820D03*
X346080Y1138320D03*
D20*
X361080Y1123320D03*
X373580Y1123320D03*
X386080Y1123320D03*
X398580Y1123320D03*
X411080Y1123320D03*
D19*
X426080Y1138320D03*
X426080Y1150820D03*
X426080Y1163320D03*
X426080Y1175820D03*
X426080Y1188320D03*
D20*
X411080Y1203320D03*
X398580Y1203320D03*
X386080Y1203320D03*
X373580Y1203320D03*
X361080Y1203320D03*
D21*
X369180Y1226820D03*
X352180Y1226820D03*
X402980Y1226820D03*
X419980Y1226820D03*
D10*
X543560Y1061720D03*
X543560Y1264920D03*
D11*
X765810Y1283970D03*
X524510Y1042670D03*
D12*
X758110Y1135320D03*
X758110Y1191320D03*
D13*
X721360Y1148320D03*
X721360Y1158320D03*
X721360Y1168320D03*
X721360Y1178320D03*
D14*
X607060Y1049020D03*
X632460Y1049020D03*
X657860Y1049020D03*
X683260Y1049020D03*
D12*
X532210Y1191320D03*
X532210Y1135320D03*
D13*
X568960Y1178320D03*
X568960Y1168320D03*
X568960Y1158320D03*
X568960Y1148320D03*
D10*
X746760Y1061720D03*
X746760Y1264920D03*
D15*
X547050Y1219400D02*
X540070Y1219400D01*
X540070Y1226380D01*
X547050Y1226380D01*
X547050Y1219400D01*
X547050Y1224200D02*
X540070Y1224200D01*
X540070Y1201860D02*
X547050Y1201860D01*
X540070Y1201860D02*
X540070Y1208840D01*
X547050Y1208840D01*
X547050Y1201860D01*
X547050Y1206660D02*
X540070Y1206660D01*
D16*
X568960Y1205620D03*
X568960Y1222620D03*
X581660Y1065920D03*
X581660Y1082920D03*
X708660Y1065920D03*
X708660Y1082920D03*
D17*
X645160Y1163320D03*
D18*
X605160Y1188320D03*
D19*
X605160Y1175820D03*
X605160Y1163320D03*
X605160Y1150820D03*
X605160Y1138320D03*
D20*
X620160Y1123320D03*
X632660Y1123320D03*
X645160Y1123320D03*
X657660Y1123320D03*
X670160Y1123320D03*
D19*
X685160Y1138320D03*
X685160Y1150820D03*
X685160Y1163320D03*
X685160Y1175820D03*
X685160Y1188320D03*
D20*
X670160Y1203320D03*
X657660Y1203320D03*
X645160Y1203320D03*
X632660Y1203320D03*
X620160Y1203320D03*
D21*
X628260Y1226820D03*
X611260Y1226820D03*
X662060Y1226820D03*
X679060Y1226820D03*
D10*
X802640Y1061720D03*
X802640Y1264920D03*
D11*
X1024890Y1283970D03*
X783590Y1042670D03*
D12*
X1017190Y1135320D03*
X1017190Y1191320D03*
D13*
X980440Y1148320D03*
X980440Y1158320D03*
X980440Y1168320D03*
X980440Y1178320D03*
D14*
X866140Y1049020D03*
X891540Y1049020D03*
X916940Y1049020D03*
X942340Y1049020D03*
D12*
X791290Y1191320D03*
X791290Y1135320D03*
D13*
X828040Y1178320D03*
X828040Y1168320D03*
X828040Y1158320D03*
X828040Y1148320D03*
D10*
X1005840Y1061720D03*
X1005840Y1264920D03*
D15*
X806130Y1219400D02*
X799150Y1219400D01*
X799150Y1226380D01*
X806130Y1226380D01*
X806130Y1219400D01*
X806130Y1224200D02*
X799150Y1224200D01*
X799150Y1201860D02*
X806130Y1201860D01*
X799150Y1201860D02*
X799150Y1208840D01*
X806130Y1208840D01*
X806130Y1201860D01*
X806130Y1206660D02*
X799150Y1206660D01*
D16*
X828040Y1205620D03*
X828040Y1222620D03*
X840740Y1065920D03*
X840740Y1082920D03*
X967740Y1065920D03*
X967740Y1082920D03*
D17*
X904240Y1163320D03*
D18*
X864240Y1188320D03*
D19*
X864240Y1175820D03*
X864240Y1163320D03*
X864240Y1150820D03*
X864240Y1138320D03*
D20*
X879240Y1123320D03*
X891740Y1123320D03*
X904240Y1123320D03*
X916740Y1123320D03*
X929240Y1123320D03*
D19*
X944240Y1138320D03*
X944240Y1150820D03*
X944240Y1163320D03*
X944240Y1175820D03*
X944240Y1188320D03*
D20*
X929240Y1203320D03*
X916740Y1203320D03*
X904240Y1203320D03*
X891740Y1203320D03*
X879240Y1203320D03*
D21*
X887340Y1226820D03*
X870340Y1226820D03*
X921140Y1226820D03*
X938140Y1226820D03*
D10*
X1061720Y1061720D03*
X1061720Y1264920D03*
D11*
X1283970Y1283970D03*
X1042670Y1042670D03*
D12*
X1276270Y1135320D03*
X1276270Y1191320D03*
D13*
X1239520Y1148320D03*
X1239520Y1158320D03*
X1239520Y1168320D03*
X1239520Y1178320D03*
D14*
X1125220Y1049020D03*
X1150620Y1049020D03*
X1176020Y1049020D03*
X1201420Y1049020D03*
D12*
X1050370Y1191320D03*
X1050370Y1135320D03*
D13*
X1087120Y1178320D03*
X1087120Y1168320D03*
X1087120Y1158320D03*
X1087120Y1148320D03*
D10*
X1264920Y1061720D03*
X1264920Y1264920D03*
D15*
X1065210Y1219400D02*
X1058230Y1219400D01*
X1058230Y1226380D01*
X1065210Y1226380D01*
X1065210Y1219400D01*
X1065210Y1224200D02*
X1058230Y1224200D01*
X1058230Y1201860D02*
X1065210Y1201860D01*
X1058230Y1201860D02*
X1058230Y1208840D01*
X1065210Y1208840D01*
X1065210Y1201860D01*
X1065210Y1206660D02*
X1058230Y1206660D01*
D16*
X1087120Y1205620D03*
X1087120Y1222620D03*
X1099820Y1065920D03*
X1099820Y1082920D03*
X1226820Y1065920D03*
X1226820Y1082920D03*
D17*
X1163320Y1163320D03*
D18*
X1123320Y1188320D03*
D19*
X1123320Y1175820D03*
X1123320Y1163320D03*
X1123320Y1150820D03*
X1123320Y1138320D03*
D20*
X1138320Y1123320D03*
X1150820Y1123320D03*
X1163320Y1123320D03*
X1175820Y1123320D03*
X1188320Y1123320D03*
D19*
X1203320Y1138320D03*
X1203320Y1150820D03*
X1203320Y1163320D03*
X1203320Y1175820D03*
X1203320Y1188320D03*
D20*
X1188320Y1203320D03*
X1175820Y1203320D03*
X1163320Y1203320D03*
X1150820Y1203320D03*
X1138320Y1203320D03*
D21*
X1146420Y1226820D03*
X1129420Y1226820D03*
X1180220Y1226820D03*
X1197220Y1226820D03*
D22*
X-26238Y1263650D03*
X1316558Y1263650D03*
D23*
X-35293Y63500D02*
X-35290Y63722D01*
X-35282Y63944D01*
X-35268Y64166D01*
X-35249Y64388D01*
X-35225Y64608D01*
X-35195Y64829D01*
X-35160Y65048D01*
X-35119Y65267D01*
X-35073Y65484D01*
X-35022Y65700D01*
X-34965Y65915D01*
X-34903Y66129D01*
X-34836Y66340D01*
X-34764Y66551D01*
X-34686Y66759D01*
X-34604Y66965D01*
X-34516Y67169D01*
X-34424Y67372D01*
X-34326Y67571D01*
X-34224Y67768D01*
X-34117Y67963D01*
X-34005Y68155D01*
X-33888Y68344D01*
X-33767Y68531D01*
X-33641Y68714D01*
X-33511Y68894D01*
X-33376Y69071D01*
X-33238Y69244D01*
X-33095Y69414D01*
X-32947Y69581D01*
X-32796Y69744D01*
X-32641Y69903D01*
X-32482Y70058D01*
X-32319Y70209D01*
X-32152Y70357D01*
X-31982Y70500D01*
X-31809Y70638D01*
X-31632Y70773D01*
X-31452Y70903D01*
X-31269Y71029D01*
X-31082Y71150D01*
X-30893Y71267D01*
X-30701Y71379D01*
X-30506Y71486D01*
X-30309Y71588D01*
X-30110Y71686D01*
X-29907Y71778D01*
X-29703Y71866D01*
X-29497Y71948D01*
X-29289Y72026D01*
X-29078Y72098D01*
X-28867Y72165D01*
X-28653Y72227D01*
X-28438Y72284D01*
X-28222Y72335D01*
X-28005Y72381D01*
X-27786Y72422D01*
X-27567Y72457D01*
X-27346Y72487D01*
X-27126Y72511D01*
X-26904Y72530D01*
X-26682Y72544D01*
X-26460Y72552D01*
X-26238Y72555D01*
X-26016Y72552D01*
X-25794Y72544D01*
X-25572Y72530D01*
X-25350Y72511D01*
X-25130Y72487D01*
X-24909Y72457D01*
X-24690Y72422D01*
X-24471Y72381D01*
X-24254Y72335D01*
X-24038Y72284D01*
X-23823Y72227D01*
X-23609Y72165D01*
X-23398Y72098D01*
X-23187Y72026D01*
X-22979Y71948D01*
X-22773Y71866D01*
X-22569Y71778D01*
X-22366Y71686D01*
X-22167Y71588D01*
X-21970Y71486D01*
X-21775Y71379D01*
X-21583Y71267D01*
X-21394Y71150D01*
X-21207Y71029D01*
X-21024Y70903D01*
X-20844Y70773D01*
X-20667Y70638D01*
X-20494Y70500D01*
X-20324Y70357D01*
X-20157Y70209D01*
X-19994Y70058D01*
X-19835Y69903D01*
X-19680Y69744D01*
X-19529Y69581D01*
X-19381Y69414D01*
X-19238Y69244D01*
X-19100Y69071D01*
X-18965Y68894D01*
X-18835Y68714D01*
X-18709Y68531D01*
X-18588Y68344D01*
X-18471Y68155D01*
X-18359Y67963D01*
X-18252Y67768D01*
X-18150Y67571D01*
X-18052Y67372D01*
X-17960Y67169D01*
X-17872Y66965D01*
X-17790Y66759D01*
X-17712Y66551D01*
X-17640Y66340D01*
X-17573Y66129D01*
X-17511Y65915D01*
X-17454Y65700D01*
X-17403Y65484D01*
X-17357Y65267D01*
X-17316Y65048D01*
X-17281Y64829D01*
X-17251Y64608D01*
X-17227Y64388D01*
X-17208Y64166D01*
X-17194Y63944D01*
X-17186Y63722D01*
X-17183Y63500D01*
X-17186Y63278D01*
X-17194Y63056D01*
X-17208Y62834D01*
X-17227Y62612D01*
X-17251Y62392D01*
X-17281Y62171D01*
X-17316Y61952D01*
X-17357Y61733D01*
X-17403Y61516D01*
X-17454Y61300D01*
X-17511Y61085D01*
X-17573Y60871D01*
X-17640Y60660D01*
X-17712Y60449D01*
X-17790Y60241D01*
X-17872Y60035D01*
X-17960Y59831D01*
X-18052Y59628D01*
X-18150Y59429D01*
X-18252Y59232D01*
X-18359Y59037D01*
X-18471Y58845D01*
X-18588Y58656D01*
X-18709Y58469D01*
X-18835Y58286D01*
X-18965Y58106D01*
X-19100Y57929D01*
X-19238Y57756D01*
X-19381Y57586D01*
X-19529Y57419D01*
X-19680Y57256D01*
X-19835Y57097D01*
X-19994Y56942D01*
X-20157Y56791D01*
X-20324Y56643D01*
X-20494Y56500D01*
X-20667Y56362D01*
X-20844Y56227D01*
X-21024Y56097D01*
X-21207Y55971D01*
X-21394Y55850D01*
X-21583Y55733D01*
X-21775Y55621D01*
X-21970Y55514D01*
X-22167Y55412D01*
X-22366Y55314D01*
X-22569Y55222D01*
X-22773Y55134D01*
X-22979Y55052D01*
X-23187Y54974D01*
X-23398Y54902D01*
X-23609Y54835D01*
X-23823Y54773D01*
X-24038Y54716D01*
X-24254Y54665D01*
X-24471Y54619D01*
X-24690Y54578D01*
X-24909Y54543D01*
X-25130Y54513D01*
X-25350Y54489D01*
X-25572Y54470D01*
X-25794Y54456D01*
X-26016Y54448D01*
X-26238Y54445D01*
X-26460Y54448D01*
X-26682Y54456D01*
X-26904Y54470D01*
X-27126Y54489D01*
X-27346Y54513D01*
X-27567Y54543D01*
X-27786Y54578D01*
X-28005Y54619D01*
X-28222Y54665D01*
X-28438Y54716D01*
X-28653Y54773D01*
X-28867Y54835D01*
X-29078Y54902D01*
X-29289Y54974D01*
X-29497Y55052D01*
X-29703Y55134D01*
X-29907Y55222D01*
X-30110Y55314D01*
X-30309Y55412D01*
X-30506Y55514D01*
X-30701Y55621D01*
X-30893Y55733D01*
X-31082Y55850D01*
X-31269Y55971D01*
X-31452Y56097D01*
X-31632Y56227D01*
X-31809Y56362D01*
X-31982Y56500D01*
X-32152Y56643D01*
X-32319Y56791D01*
X-32482Y56942D01*
X-32641Y57097D01*
X-32796Y57256D01*
X-32947Y57419D01*
X-33095Y57586D01*
X-33238Y57756D01*
X-33376Y57929D01*
X-33511Y58106D01*
X-33641Y58286D01*
X-33767Y58469D01*
X-33888Y58656D01*
X-34005Y58845D01*
X-34117Y59037D01*
X-34224Y59232D01*
X-34326Y59429D01*
X-34424Y59628D01*
X-34516Y59831D01*
X-34604Y60035D01*
X-34686Y60241D01*
X-34764Y60449D01*
X-34836Y60660D01*
X-34903Y60871D01*
X-34965Y61085D01*
X-35022Y61300D01*
X-35073Y61516D01*
X-35119Y61733D01*
X-35160Y61952D01*
X-35195Y62171D01*
X-35225Y62392D01*
X-35249Y62612D01*
X-35268Y62834D01*
X-35282Y63056D01*
X-35290Y63278D01*
X-35293Y63500D01*
D24*
X-26238Y63500D03*
M02*
